# xmcd
#
# Track frame offsets: 
#        151
#        18260
#        26481
#        37803
#        69326
#        83279
#        95417
#        104421
#        121187
#        133478
#        148493
#        159603
#        167575
#        180316
#        194349
#        206334
#        216491
#        227360
#        242190
#
# Disc length: 3423 seconds
#
# Revision: 0
# Processed by: cddbd v1.5.1PL0 Copyright (c) Steve Scherf et al.
# Submitted via: ExactAudioCopy v0.90b2
#
DISCID=fc0d5d13
DTITLE=Johnny Cash and Bob Dylan - Nashville Sessions
DYEAR=1969
DGENRE=Country
TTITLE0=One Too Many Mornings
TTITLE1=Mountain Dew
TTITLE2=I Still Miss Someone
TTITLE3=Careless Love
TTITLE4=Matchbox
TTITLE5=That's All Right Mama
TTITLE6=Big River
TTITLE7=Girl From The North Country
TTITLE8=I Walk The Line
TTITLE9=You Are My Sunshine
TTITLE10=Ring Of Fire
TTITLE11=Guess Things Happen That Way
TTITLE12=Just A Closer Walk With Thee
TTITLE13=T For Texas (Take A)
TTITLE14=T For Texas (TAke B)
TTITLE15=I Threw It All Away
TTITLE16=Living The Blues
TTITLE17=Girl From The North Country
TTITLE18=One Too Many Mornings
EXTD=
EXTT0=
EXTT1=
EXTT2=
EXTT3=
EXTT4=
EXTT5=
EXTT6=
EXTT7=
EXTT8=
EXTT9=
EXTT10=
EXTT11=
EXTT12=
EXTT13=
EXTT14=
EXTT15=
EXTT16=
EXTT17=
EXTT18=
PLAYORDER=
